<?xml version="1.0" standalone="no"?>
<!DOCTYPE svg PUBLIC "-//W3C//DTD SVG 20010904//EN"
 "http://www.w3.org/TR/2001/REC-SVG-20010904/DTD/svg10.dtd">
<svg version="1.0" xmlns="http://www.w3.org/2000/svg"
 width="512.000000pt" height="512.000000pt" viewBox="0 0 512.000000 512.000000"
 preserveAspectRatio="xMidYMid meet">

<g transform="translate(0.000000,512.000000) scale(0.100000,-0.100000)"
fill="#000000" stroke="none">
<path d="M2305 4053 c-343 -19 -774 -98 -1097 -202 -111 -36 -138 -60 -138
-123 0 -31 7 -46 30 -70 32 -32 32 -32 134 -16 16 3 30 -27 92 -195 40 -110
85 -214 99 -233 54 -71 149 -117 240 -117 168 0 298 131 298 298 0 61 -8 91
-61 235 -34 90 -60 165 -59 166 5 5 229 34 281 36 l60 3 107 -293 c60 -165
119 -308 133 -327 55 -72 149 -118 241 -118 168 0 298 131 298 298 0 62 -8 92
-70 260 -39 105 -67 191 -63 193 10 4 293 -25 337 -34 27 -5 32 -18 128 -282
55 -152 112 -293 127 -313 101 -139 312 -162 442 -48 104 91 127 221 67 378
-17 46 -30 86 -28 88 8 7 234 -89 336 -143 350 -185 560 -405 640 -670 24 -77
20 -104 -19 -139 -22 -20 -36 -20 -2300 -20 -2264 0 -2278 0 -2300 20 -39 35
-43 62 -19 139 41 136 119 263 234 381 41 42 80 85 85 95 34 63 -16 140 -90
140 -39 0 -48 -6 -117 -72 -103 -100 -185 -211 -243 -332 -51 -104 -90 -227
-90 -281 0 -89 62 -198 139 -245 l41 -25 0 -220 0 -220 -45 -24 c-170 -90
-202 -321 -79 -571 39 -79 62 -110 133 -181 72 -72 102 -94 181 -132 169 -83
10 -77 2170 -77 2083 0 1994 -2 2125 53 154 64 286 189 359 339 122 250 91
479 -79 569 l-45 24 0 220 1 220 41 25 c76 47 138 156 138 245 0 54 -39 177
-90 281 -173 356 -552 634 -1118 820 -461 152 -1059 226 -1587 197z m376 -413
c43 -118 79 -230 79 -248 0 -47 -46 -92 -94 -92 -65 0 -79 23 -176 290 -50
135 -88 251 -85 258 3 9 29 12 101 10 l97 -3 78 -215z m893 96 l79 -21 54
-145 c29 -80 53 -160 53 -178 0 -47 -46 -92 -94 -92 -63 0 -80 26 -161 249
-41 113 -75 208 -75 213 0 9 36 2 144 -26z m-1875 -145 c33 -92 61 -183 61
-200 0 -46 -47 -91 -94 -91 -62 0 -81 27 -152 224 -36 98 -62 181 -59 185 5 5
149 46 176 50 4 1 34 -75 68 -168z m-384 -1331 l200 -200 -558 0 -557 0 0 200
0 200 358 0 357 0 200 -200z m1222 -177 l-377 -378 -377 378 -378 377 755 0
755 0 -378 -377z m800 0 l-377 -378 -127 128 -128 127 250 250 250 250 255 0
255 0 -378 -377z m1383 177 l0 -200 -557 0 -558 0 200 200 200 200 357 0 358
0 0 -200z m-2805 -600 c266 -263 226 -261 466 -23 l179 177 179 -177 c240
-238 200 -241 466 23 l201 200 726 -2 726 -3 26 -24 c34 -32 41 -76 26 -156
-37 -198 -186 -354 -382 -400 -95 -22 -3841 -22 -3936 0 -191 45 -333 188
-378 382 -24 105 -8 170 51 194 11 4 342 8 734 8 l715 1 201 -200z"/>
<path d="M751 3656 c-88 -49 -51 -185 51 -186 28 0 44 7 67 31 82 82 -17 211
-118 155z"/>
</g>
</svg>
